<mxfile host="app.diagrams.net" agent="Mozilla/5.0 (Macintosh; Intel Mac OS X 10_15_7) AppleWebKit/537.36 (KHTML, like Gecko) Chrome/132.0.0.0 Safari/537.36" version="26.0.6" pages="10">
  <diagram name="Page-1" id="oUFCUAXtyh-3c4heNjrQ">
    <mxGraphModel dx="1306" dy="825" grid="1" gridSize="10" guides="1" tooltips="1" connect="1" arrows="1" fold="1" page="1" pageScale="1" pageWidth="850" pageHeight="1100" math="0" shadow="0">
      <root>
        <mxCell id="0" />
        <mxCell id="1" parent="0" />
        <mxCell id="z2Hsu4wqIuIydClesxZg-1" value="B doesnt exist" style="rounded=1;whiteSpace=wrap;html=1;" parent="1" vertex="1">
          <mxGeometry x="365" y="20" width="120" height="60" as="geometry" />
        </mxCell>
      </root>
    </mxGraphModel>
  </diagram>
  <diagram id="9jEblYvs36_08u5KtGEu" name="Page-3">
    <mxGraphModel dx="1306" dy="825" grid="1" gridSize="10" guides="1" tooltips="1" connect="1" arrows="1" fold="1" page="1" pageScale="1" pageWidth="850" pageHeight="1100" math="0" shadow="0">
      <root>
        <mxCell id="0" />
        <mxCell id="1" parent="0" />
        <mxCell id="Q7NPrgNU4ksKm9Vl4Wgj-1" value="" style="edgeStyle=orthogonalEdgeStyle;rounded=0;orthogonalLoop=1;jettySize=auto;html=1;" edge="1" parent="1" source="Q7NPrgNU4ksKm9Vl4Wgj-2" target="Q7NPrgNU4ksKm9Vl4Wgj-8">
          <mxGeometry relative="1" as="geometry" />
        </mxCell>
        <mxCell id="Q7NPrgNU4ksKm9Vl4Wgj-2" value="start" style="rounded=1;whiteSpace=wrap;html=1;" vertex="1" parent="1">
          <mxGeometry x="365" y="20" width="120" height="60" as="geometry" />
        </mxCell>
        <mxCell id="Q7NPrgNU4ksKm9Vl4Wgj-3" value="" style="verticalLabelPosition=bottom;verticalAlign=top;html=1;shape=card;whiteSpace=wrap;size=20;arcSize=12;" vertex="1" parent="1">
          <mxGeometry x="370" y="150" width="100" height="50" as="geometry" />
        </mxCell>
        <mxCell id="Q7NPrgNU4ksKm9Vl4Wgj-4" value="" style="edgeStyle=orthogonalEdgeStyle;rounded=0;orthogonalLoop=1;jettySize=auto;html=1;" edge="1" parent="1" source="Q7NPrgNU4ksKm9Vl4Wgj-5" target="Q7NPrgNU4ksKm9Vl4Wgj-12">
          <mxGeometry relative="1" as="geometry" />
        </mxCell>
        <mxCell id="Q7NPrgNU4ksKm9Vl4Wgj-5" value="" style="strokeWidth=2;html=1;shape=mxgraph.flowchart.document2;whiteSpace=wrap;size=0.25;" vertex="1" parent="1">
          <mxGeometry x="375" y="260" width="90" height="60" as="geometry" />
        </mxCell>
        <mxCell id="Q7NPrgNU4ksKm9Vl4Wgj-6" value="" style="verticalLabelPosition=bottom;verticalAlign=top;html=1;shape=card;whiteSpace=wrap;size=20;arcSize=12;" vertex="1" parent="1">
          <mxGeometry x="370" y="140" width="100" height="60" as="geometry" />
        </mxCell>
        <mxCell id="Q7NPrgNU4ksKm9Vl4Wgj-7" value="" style="edgeStyle=orthogonalEdgeStyle;rounded=0;orthogonalLoop=1;jettySize=auto;html=1;" edge="1" parent="1" source="Q7NPrgNU4ksKm9Vl4Wgj-8" target="Q7NPrgNU4ksKm9Vl4Wgj-5">
          <mxGeometry relative="1" as="geometry" />
        </mxCell>
        <mxCell id="Q7NPrgNU4ksKm9Vl4Wgj-8" value="" style="verticalLabelPosition=bottom;verticalAlign=top;html=1;shape=card;whiteSpace=wrap;size=20;arcSize=12;" vertex="1" parent="1">
          <mxGeometry x="370" y="140" width="100" height="60" as="geometry" />
        </mxCell>
        <mxCell id="Q7NPrgNU4ksKm9Vl4Wgj-9" value="Text" style="text;html=1;align=center;verticalAlign=middle;resizable=0;points=[];autosize=1;strokeColor=none;fillColor=none;" vertex="1" parent="1">
          <mxGeometry x="395" y="160" width="50" height="30" as="geometry" />
        </mxCell>
        <mxCell id="Q7NPrgNU4ksKm9Vl4Wgj-10" value="a,b" style="rounded=0;whiteSpace=wrap;html=1;" vertex="1" parent="1">
          <mxGeometry x="385" y="155" width="70" height="30" as="geometry" />
        </mxCell>
        <mxCell id="Q7NPrgNU4ksKm9Vl4Wgj-11" value="a,b" style="rounded=0;whiteSpace=wrap;html=1;" vertex="1" parent="1">
          <mxGeometry x="385" y="270" width="70" height="30" as="geometry" />
        </mxCell>
        <mxCell id="Q7NPrgNU4ksKm9Vl4Wgj-12" value="End" style="rounded=1;whiteSpace=wrap;html=1;" vertex="1" parent="1">
          <mxGeometry x="360" y="360" width="120" height="60" as="geometry" />
        </mxCell>
      </root>
    </mxGraphModel>
  </diagram>
  <diagram id="4JbuPrR1pd05wv5zg8th" name="Page-4">
    <mxGraphModel dx="1306" dy="825" grid="1" gridSize="10" guides="1" tooltips="1" connect="1" arrows="1" fold="1" page="1" pageScale="1" pageWidth="850" pageHeight="1100" math="0" shadow="0">
      <root>
        <mxCell id="0" />
        <mxCell id="1" parent="0" />
        <mxCell id="W-WKiRNF_GDvo_1qhWfM-1" value="" style="edgeStyle=orthogonalEdgeStyle;rounded=0;orthogonalLoop=1;jettySize=auto;html=1;" edge="1" parent="1" source="W-WKiRNF_GDvo_1qhWfM-2" target="W-WKiRNF_GDvo_1qhWfM-8">
          <mxGeometry relative="1" as="geometry" />
        </mxCell>
        <mxCell id="W-WKiRNF_GDvo_1qhWfM-2" value="start" style="rounded=1;whiteSpace=wrap;html=1;" vertex="1" parent="1">
          <mxGeometry x="368" y="200" width="120" height="60" as="geometry" />
        </mxCell>
        <mxCell id="W-WKiRNF_GDvo_1qhWfM-3" value="" style="verticalLabelPosition=bottom;verticalAlign=top;html=1;shape=card;whiteSpace=wrap;size=20;arcSize=12;" vertex="1" parent="1">
          <mxGeometry x="373" y="330" width="100" height="50" as="geometry" />
        </mxCell>
        <mxCell id="W-WKiRNF_GDvo_1qhWfM-4" value="" style="edgeStyle=orthogonalEdgeStyle;rounded=0;orthogonalLoop=1;jettySize=auto;html=1;" edge="1" parent="1" source="W-WKiRNF_GDvo_1qhWfM-5" target="W-WKiRNF_GDvo_1qhWfM-12">
          <mxGeometry relative="1" as="geometry" />
        </mxCell>
        <mxCell id="W-WKiRNF_GDvo_1qhWfM-5" value="" style="strokeWidth=2;html=1;shape=mxgraph.flowchart.document2;whiteSpace=wrap;size=0.25;" vertex="1" parent="1">
          <mxGeometry x="378" y="440" width="90" height="60" as="geometry" />
        </mxCell>
        <mxCell id="W-WKiRNF_GDvo_1qhWfM-6" value="" style="verticalLabelPosition=bottom;verticalAlign=top;html=1;shape=card;whiteSpace=wrap;size=20;arcSize=12;" vertex="1" parent="1">
          <mxGeometry x="373" y="320" width="100" height="60" as="geometry" />
        </mxCell>
        <mxCell id="W-WKiRNF_GDvo_1qhWfM-7" value="" style="edgeStyle=orthogonalEdgeStyle;rounded=0;orthogonalLoop=1;jettySize=auto;html=1;" edge="1" parent="1" source="W-WKiRNF_GDvo_1qhWfM-8" target="W-WKiRNF_GDvo_1qhWfM-5">
          <mxGeometry relative="1" as="geometry" />
        </mxCell>
        <mxCell id="W-WKiRNF_GDvo_1qhWfM-8" value="" style="verticalLabelPosition=bottom;verticalAlign=top;html=1;shape=card;whiteSpace=wrap;size=20;arcSize=12;" vertex="1" parent="1">
          <mxGeometry x="373" y="320" width="100" height="60" as="geometry" />
        </mxCell>
        <mxCell id="W-WKiRNF_GDvo_1qhWfM-9" value="Text" style="text;html=1;align=center;verticalAlign=middle;resizable=0;points=[];autosize=1;strokeColor=none;fillColor=none;" vertex="1" parent="1">
          <mxGeometry x="398" y="340" width="50" height="30" as="geometry" />
        </mxCell>
        <mxCell id="W-WKiRNF_GDvo_1qhWfM-10" value="a,b" style="rounded=0;whiteSpace=wrap;html=1;" vertex="1" parent="1">
          <mxGeometry x="388" y="335" width="70" height="30" as="geometry" />
        </mxCell>
        <mxCell id="W-WKiRNF_GDvo_1qhWfM-11" value="b,a" style="rounded=0;whiteSpace=wrap;html=1;" vertex="1" parent="1">
          <mxGeometry x="388" y="450" width="70" height="30" as="geometry" />
        </mxCell>
        <mxCell id="W-WKiRNF_GDvo_1qhWfM-12" value="End" style="rounded=1;whiteSpace=wrap;html=1;" vertex="1" parent="1">
          <mxGeometry x="363" y="540" width="120" height="60" as="geometry" />
        </mxCell>
      </root>
    </mxGraphModel>
  </diagram>
  <diagram id="GvQT1lq0LYt9thMBJvjV" name="Page-5">
    <mxGraphModel dx="1306" dy="825" grid="1" gridSize="10" guides="1" tooltips="1" connect="1" arrows="1" fold="1" page="1" pageScale="1" pageWidth="850" pageHeight="1100" math="0" shadow="0">
      <root>
        <mxCell id="0" />
        <mxCell id="1" parent="0" />
        <mxCell id="qViDyqzQ3LAidhZj8eHh-1" value="" style="edgeStyle=orthogonalEdgeStyle;rounded=0;orthogonalLoop=1;jettySize=auto;html=1;" edge="1" parent="1" source="qViDyqzQ3LAidhZj8eHh-2" target="qViDyqzQ3LAidhZj8eHh-8">
          <mxGeometry relative="1" as="geometry" />
        </mxCell>
        <mxCell id="qViDyqzQ3LAidhZj8eHh-2" value="start" style="rounded=1;whiteSpace=wrap;html=1;" vertex="1" parent="1">
          <mxGeometry x="368" y="200" width="120" height="60" as="geometry" />
        </mxCell>
        <mxCell id="qViDyqzQ3LAidhZj8eHh-3" value="" style="verticalLabelPosition=bottom;verticalAlign=top;html=1;shape=card;whiteSpace=wrap;size=20;arcSize=12;" vertex="1" parent="1">
          <mxGeometry x="373" y="330" width="100" height="50" as="geometry" />
        </mxCell>
        <mxCell id="qViDyqzQ3LAidhZj8eHh-4" value="" style="edgeStyle=orthogonalEdgeStyle;rounded=0;orthogonalLoop=1;jettySize=auto;html=1;" edge="1" parent="1" source="qViDyqzQ3LAidhZj8eHh-5" target="qViDyqzQ3LAidhZj8eHh-12">
          <mxGeometry relative="1" as="geometry" />
        </mxCell>
        <mxCell id="qViDyqzQ3LAidhZj8eHh-5" value="" style="strokeWidth=2;html=1;shape=mxgraph.flowchart.document2;whiteSpace=wrap;size=0.25;" vertex="1" parent="1">
          <mxGeometry x="378" y="440" width="90" height="60" as="geometry" />
        </mxCell>
        <mxCell id="qViDyqzQ3LAidhZj8eHh-6" value="" style="verticalLabelPosition=bottom;verticalAlign=top;html=1;shape=card;whiteSpace=wrap;size=20;arcSize=12;" vertex="1" parent="1">
          <mxGeometry x="373" y="320" width="100" height="60" as="geometry" />
        </mxCell>
        <mxCell id="qViDyqzQ3LAidhZj8eHh-7" value="" style="edgeStyle=orthogonalEdgeStyle;rounded=0;orthogonalLoop=1;jettySize=auto;html=1;" edge="1" parent="1" source="qViDyqzQ3LAidhZj8eHh-8" target="qViDyqzQ3LAidhZj8eHh-5">
          <mxGeometry relative="1" as="geometry" />
        </mxCell>
        <mxCell id="qViDyqzQ3LAidhZj8eHh-8" value="" style="verticalLabelPosition=bottom;verticalAlign=top;html=1;shape=card;whiteSpace=wrap;size=20;arcSize=12;" vertex="1" parent="1">
          <mxGeometry x="373" y="320" width="100" height="60" as="geometry" />
        </mxCell>
        <mxCell id="qViDyqzQ3LAidhZj8eHh-9" value="Text" style="text;html=1;align=center;verticalAlign=middle;resizable=0;points=[];autosize=1;strokeColor=none;fillColor=none;" vertex="1" parent="1">
          <mxGeometry x="398" y="340" width="50" height="30" as="geometry" />
        </mxCell>
        <mxCell id="qViDyqzQ3LAidhZj8eHh-10" value="a,b" style="rounded=0;whiteSpace=wrap;html=1;" vertex="1" parent="1">
          <mxGeometry x="388" y="335" width="70" height="30" as="geometry" />
        </mxCell>
        <mxCell id="qViDyqzQ3LAidhZj8eHh-11" value="b" style="rounded=0;whiteSpace=wrap;html=1;" vertex="1" parent="1">
          <mxGeometry x="388" y="450" width="70" height="30" as="geometry" />
        </mxCell>
        <mxCell id="qViDyqzQ3LAidhZj8eHh-12" value="End" style="rounded=1;whiteSpace=wrap;html=1;" vertex="1" parent="1">
          <mxGeometry x="363" y="540" width="120" height="60" as="geometry" />
        </mxCell>
      </root>
    </mxGraphModel>
  </diagram>
  <diagram id="-NndUEOaS4jyYhjh6UHw" name="Page-6">
    <mxGraphModel dx="1306" dy="825" grid="1" gridSize="10" guides="1" tooltips="1" connect="1" arrows="1" fold="1" page="1" pageScale="1" pageWidth="850" pageHeight="1100" math="0" shadow="0">
      <root>
        <mxCell id="0" />
        <mxCell id="1" parent="0" />
        <mxCell id="73eROS-KfsjQNuHYlvPl-1" value="" style="edgeStyle=orthogonalEdgeStyle;rounded=0;orthogonalLoop=1;jettySize=auto;html=1;" edge="1" parent="1" source="73eROS-KfsjQNuHYlvPl-2" target="73eROS-KfsjQNuHYlvPl-8">
          <mxGeometry relative="1" as="geometry" />
        </mxCell>
        <mxCell id="73eROS-KfsjQNuHYlvPl-2" value="start" style="rounded=1;whiteSpace=wrap;html=1;" vertex="1" parent="1">
          <mxGeometry x="368" y="200" width="120" height="60" as="geometry" />
        </mxCell>
        <mxCell id="73eROS-KfsjQNuHYlvPl-3" value="" style="verticalLabelPosition=bottom;verticalAlign=top;html=1;shape=card;whiteSpace=wrap;size=20;arcSize=12;" vertex="1" parent="1">
          <mxGeometry x="373" y="330" width="100" height="50" as="geometry" />
        </mxCell>
        <mxCell id="73eROS-KfsjQNuHYlvPl-4" value="" style="edgeStyle=orthogonalEdgeStyle;rounded=0;orthogonalLoop=1;jettySize=auto;html=1;" edge="1" parent="1" source="73eROS-KfsjQNuHYlvPl-5" target="73eROS-KfsjQNuHYlvPl-12">
          <mxGeometry relative="1" as="geometry" />
        </mxCell>
        <mxCell id="73eROS-KfsjQNuHYlvPl-5" value="" style="strokeWidth=2;html=1;shape=mxgraph.flowchart.document2;whiteSpace=wrap;size=0.25;" vertex="1" parent="1">
          <mxGeometry x="378" y="440" width="90" height="60" as="geometry" />
        </mxCell>
        <mxCell id="73eROS-KfsjQNuHYlvPl-6" value="" style="verticalLabelPosition=bottom;verticalAlign=top;html=1;shape=card;whiteSpace=wrap;size=20;arcSize=12;" vertex="1" parent="1">
          <mxGeometry x="373" y="320" width="100" height="60" as="geometry" />
        </mxCell>
        <mxCell id="73eROS-KfsjQNuHYlvPl-7" value="" style="edgeStyle=orthogonalEdgeStyle;rounded=0;orthogonalLoop=1;jettySize=auto;html=1;" edge="1" parent="1" source="73eROS-KfsjQNuHYlvPl-8" target="73eROS-KfsjQNuHYlvPl-5">
          <mxGeometry relative="1" as="geometry" />
        </mxCell>
        <mxCell id="73eROS-KfsjQNuHYlvPl-8" value="" style="verticalLabelPosition=bottom;verticalAlign=top;html=1;shape=card;whiteSpace=wrap;size=20;arcSize=12;" vertex="1" parent="1">
          <mxGeometry x="373" y="320" width="100" height="60" as="geometry" />
        </mxCell>
        <mxCell id="73eROS-KfsjQNuHYlvPl-9" value="Text" style="text;html=1;align=center;verticalAlign=middle;resizable=0;points=[];autosize=1;strokeColor=none;fillColor=none;" vertex="1" parent="1">
          <mxGeometry x="398" y="340" width="50" height="30" as="geometry" />
        </mxCell>
        <mxCell id="73eROS-KfsjQNuHYlvPl-10" value="a,b" style="rounded=0;whiteSpace=wrap;html=1;" vertex="1" parent="1">
          <mxGeometry x="388" y="335" width="70" height="30" as="geometry" />
        </mxCell>
        <mxCell id="73eROS-KfsjQNuHYlvPl-11" value="a" style="rounded=0;whiteSpace=wrap;html=1;" vertex="1" parent="1">
          <mxGeometry x="388" y="450" width="70" height="30" as="geometry" />
        </mxCell>
        <mxCell id="73eROS-KfsjQNuHYlvPl-12" value="End" style="rounded=1;whiteSpace=wrap;html=1;" vertex="1" parent="1">
          <mxGeometry x="363" y="540" width="120" height="60" as="geometry" />
        </mxCell>
      </root>
    </mxGraphModel>
  </diagram>
  <diagram id="4ujkOkZ8ygEaf-BA5FmR" name="Page-7">
    <mxGraphModel dx="1306" dy="825" grid="1" gridSize="10" guides="1" tooltips="1" connect="1" arrows="1" fold="1" page="1" pageScale="1" pageWidth="850" pageHeight="1100" math="0" shadow="0">
      <root>
        <mxCell id="0" />
        <mxCell id="1" parent="0" />
        <mxCell id="aJUoEN2y6bJGBYVNGI-g-1" value="" style="edgeStyle=orthogonalEdgeStyle;rounded=0;orthogonalLoop=1;jettySize=auto;html=1;" edge="1" parent="1" source="aJUoEN2y6bJGBYVNGI-g-2" target="aJUoEN2y6bJGBYVNGI-g-8">
          <mxGeometry relative="1" as="geometry" />
        </mxCell>
        <mxCell id="aJUoEN2y6bJGBYVNGI-g-2" value="start" style="rounded=1;whiteSpace=wrap;html=1;" vertex="1" parent="1">
          <mxGeometry x="368" y="200" width="120" height="60" as="geometry" />
        </mxCell>
        <mxCell id="aJUoEN2y6bJGBYVNGI-g-3" value="" style="verticalLabelPosition=bottom;verticalAlign=top;html=1;shape=card;whiteSpace=wrap;size=20;arcSize=12;" vertex="1" parent="1">
          <mxGeometry x="373" y="330" width="100" height="50" as="geometry" />
        </mxCell>
        <mxCell id="aJUoEN2y6bJGBYVNGI-g-4" value="" style="edgeStyle=orthogonalEdgeStyle;rounded=0;orthogonalLoop=1;jettySize=auto;html=1;exitX=0.5;exitY=0.833;exitDx=0;exitDy=0;exitPerimeter=0;" edge="1" parent="1" source="aJUoEN2y6bJGBYVNGI-g-5" target="aJUoEN2y6bJGBYVNGI-g-12">
          <mxGeometry relative="1" as="geometry">
            <mxPoint x="421" y="780" as="sourcePoint" />
          </mxGeometry>
        </mxCell>
        <mxCell id="aJUoEN2y6bJGBYVNGI-g-5" value="" style="strokeWidth=2;html=1;shape=mxgraph.flowchart.document2;whiteSpace=wrap;size=0.25;" vertex="1" parent="1">
          <mxGeometry x="378" y="440" width="90" height="60" as="geometry" />
        </mxCell>
        <mxCell id="aJUoEN2y6bJGBYVNGI-g-6" value="" style="verticalLabelPosition=bottom;verticalAlign=top;html=1;shape=card;whiteSpace=wrap;size=20;arcSize=12;" vertex="1" parent="1">
          <mxGeometry x="373" y="320" width="100" height="60" as="geometry" />
        </mxCell>
        <mxCell id="aJUoEN2y6bJGBYVNGI-g-7" value="" style="edgeStyle=orthogonalEdgeStyle;rounded=0;orthogonalLoop=1;jettySize=auto;html=1;" edge="1" parent="1" source="aJUoEN2y6bJGBYVNGI-g-8" target="aJUoEN2y6bJGBYVNGI-g-5">
          <mxGeometry relative="1" as="geometry" />
        </mxCell>
        <mxCell id="aJUoEN2y6bJGBYVNGI-g-8" value="" style="verticalLabelPosition=bottom;verticalAlign=top;html=1;shape=card;whiteSpace=wrap;size=20;arcSize=12;" vertex="1" parent="1">
          <mxGeometry x="373" y="320" width="100" height="60" as="geometry" />
        </mxCell>
        <mxCell id="aJUoEN2y6bJGBYVNGI-g-9" value="Text" style="text;html=1;align=center;verticalAlign=middle;resizable=0;points=[];autosize=1;strokeColor=none;fillColor=none;" vertex="1" parent="1">
          <mxGeometry x="398" y="340" width="50" height="30" as="geometry" />
        </mxCell>
        <mxCell id="aJUoEN2y6bJGBYVNGI-g-10" value="b" style="rounded=0;whiteSpace=wrap;html=1;" vertex="1" parent="1">
          <mxGeometry x="388" y="335" width="70" height="30" as="geometry" />
        </mxCell>
        <mxCell id="aJUoEN2y6bJGBYVNGI-g-11" value="b,b,b" style="rounded=0;whiteSpace=wrap;html=1;" vertex="1" parent="1">
          <mxGeometry x="388" y="450" width="70" height="30" as="geometry" />
        </mxCell>
        <mxCell id="aJUoEN2y6bJGBYVNGI-g-12" value="End" style="rounded=1;whiteSpace=wrap;html=1;" vertex="1" parent="1">
          <mxGeometry x="365" y="550" width="120" height="60" as="geometry" />
        </mxCell>
      </root>
    </mxGraphModel>
  </diagram>
  <diagram id="MXFx503gXQtNz1Wvn-BY" name="Page-8">
    <mxGraphModel dx="1306" dy="825" grid="1" gridSize="10" guides="1" tooltips="1" connect="1" arrows="1" fold="1" page="1" pageScale="1" pageWidth="850" pageHeight="1100" math="0" shadow="0">
      <root>
        <mxCell id="0" />
        <mxCell id="1" parent="0" />
        <mxCell id="VPYCrDR8VK9sBtl6BAW--1" value="" style="shape=document;whiteSpace=wrap;html=1;boundedLbl=1;" vertex="1" parent="1">
          <mxGeometry x="360" y="240" width="120" height="80" as="geometry" />
        </mxCell>
        <mxCell id="VPYCrDR8VK9sBtl6BAW--2" value="&quot;15&quot;,32" style="text;strokeColor=none;align=center;fillColor=none;html=1;verticalAlign=middle;whiteSpace=wrap;rounded=0;" vertex="1" parent="1">
          <mxGeometry x="390" y="260" width="60" height="30" as="geometry" />
        </mxCell>
        <mxCell id="VPYCrDR8VK9sBtl6BAW--3" value="" style="shape=document;whiteSpace=wrap;html=1;boundedLbl=1;" vertex="1" parent="1">
          <mxGeometry x="360" y="370" width="120" height="80" as="geometry" />
        </mxCell>
        <mxCell id="VPYCrDR8VK9sBtl6BAW--4" value="1,32" style="text;strokeColor=none;align=center;fillColor=none;html=1;verticalAlign=middle;whiteSpace=wrap;rounded=0;" vertex="1" parent="1">
          <mxGeometry x="390" y="390" width="60" height="30" as="geometry" />
        </mxCell>
        <mxCell id="VPYCrDR8VK9sBtl6BAW--5" value="" style="endArrow=classic;html=1;rounded=0;" edge="1" parent="1">
          <mxGeometry width="50" height="50" relative="1" as="geometry">
            <mxPoint x="200" y="280" as="sourcePoint" />
            <mxPoint x="290" y="280" as="targetPoint" />
          </mxGeometry>
        </mxCell>
        <mxCell id="VPYCrDR8VK9sBtl6BAW--6" value="1" style="text;strokeColor=none;align=center;fillColor=none;html=1;verticalAlign=middle;whiteSpace=wrap;rounded=0;fontSize=23;" vertex="1" parent="1">
          <mxGeometry x="140" y="265" width="60" height="30" as="geometry" />
        </mxCell>
        <mxCell id="VPYCrDR8VK9sBtl6BAW--7" value="1" style="text;strokeColor=none;align=center;fillColor=none;html=1;verticalAlign=middle;whiteSpace=wrap;rounded=0;fontSize=23;" vertex="1" parent="1">
          <mxGeometry x="140" y="390" width="60" height="30" as="geometry" />
        </mxCell>
        <mxCell id="VPYCrDR8VK9sBtl6BAW--8" value="" style="endArrow=classic;html=1;rounded=0;" edge="1" parent="1">
          <mxGeometry width="50" height="50" relative="1" as="geometry">
            <mxPoint x="200" y="404.5" as="sourcePoint" />
            <mxPoint x="290" y="404.5" as="targetPoint" />
          </mxGeometry>
        </mxCell>
      </root>
    </mxGraphModel>
  </diagram>
  <diagram id="M__L4NLTKzWDNXJKBg6J" name="Page-9">
    <mxGraphModel dx="1306" dy="825" grid="1" gridSize="10" guides="1" tooltips="1" connect="1" arrows="1" fold="1" page="1" pageScale="1" pageWidth="850" pageHeight="1100" math="0" shadow="0">
      <root>
        <mxCell id="0" />
        <mxCell id="1" parent="0" />
        <mxCell id="N47B7sOQvEutrvXWtpZi-1" value="" style="edgeStyle=orthogonalEdgeStyle;rounded=0;orthogonalLoop=1;jettySize=auto;html=1;" edge="1" parent="1" source="N47B7sOQvEutrvXWtpZi-2" target="N47B7sOQvEutrvXWtpZi-8">
          <mxGeometry relative="1" as="geometry" />
        </mxCell>
        <mxCell id="N47B7sOQvEutrvXWtpZi-2" value="start" style="rounded=1;whiteSpace=wrap;html=1;" vertex="1" parent="1">
          <mxGeometry x="367" y="80" width="120" height="60" as="geometry" />
        </mxCell>
        <mxCell id="N47B7sOQvEutrvXWtpZi-3" value="" style="verticalLabelPosition=bottom;verticalAlign=top;html=1;shape=card;whiteSpace=wrap;size=20;arcSize=12;" vertex="1" parent="1">
          <mxGeometry x="372" y="210" width="100" height="50" as="geometry" />
        </mxCell>
        <mxCell id="N47B7sOQvEutrvXWtpZi-15" value="" style="edgeStyle=orthogonalEdgeStyle;rounded=0;orthogonalLoop=1;jettySize=auto;html=1;" edge="1" parent="1" source="N47B7sOQvEutrvXWtpZi-5" target="N47B7sOQvEutrvXWtpZi-13">
          <mxGeometry relative="1" as="geometry" />
        </mxCell>
        <mxCell id="N47B7sOQvEutrvXWtpZi-5" value="a+b+c" style="strokeWidth=2;html=1;shape=mxgraph.flowchart.document2;whiteSpace=wrap;size=0.25;" vertex="1" parent="1">
          <mxGeometry x="377" y="320" width="90" height="60" as="geometry" />
        </mxCell>
        <mxCell id="N47B7sOQvEutrvXWtpZi-6" value="" style="verticalLabelPosition=bottom;verticalAlign=top;html=1;shape=card;whiteSpace=wrap;size=20;arcSize=12;" vertex="1" parent="1">
          <mxGeometry x="372" y="200" width="100" height="60" as="geometry" />
        </mxCell>
        <mxCell id="N47B7sOQvEutrvXWtpZi-7" value="" style="edgeStyle=orthogonalEdgeStyle;rounded=0;orthogonalLoop=1;jettySize=auto;html=1;" edge="1" parent="1" source="N47B7sOQvEutrvXWtpZi-8" target="N47B7sOQvEutrvXWtpZi-5">
          <mxGeometry relative="1" as="geometry" />
        </mxCell>
        <mxCell id="N47B7sOQvEutrvXWtpZi-8" value="" style="verticalLabelPosition=bottom;verticalAlign=top;html=1;shape=card;whiteSpace=wrap;size=20;arcSize=12;" vertex="1" parent="1">
          <mxGeometry x="372" y="200" width="100" height="60" as="geometry" />
        </mxCell>
        <mxCell id="N47B7sOQvEutrvXWtpZi-10" value="b" style="rounded=0;whiteSpace=wrap;html=1;" vertex="1" parent="1">
          <mxGeometry x="387" y="445" width="70" height="30" as="geometry" />
        </mxCell>
        <mxCell id="N47B7sOQvEutrvXWtpZi-11" value="a,b,c" style="rounded=0;whiteSpace=wrap;html=1;" vertex="1" parent="1">
          <mxGeometry x="387" y="215" width="70" height="30" as="geometry" />
        </mxCell>
        <mxCell id="N47B7sOQvEutrvXWtpZi-12" value="End" style="rounded=1;whiteSpace=wrap;html=1;" vertex="1" parent="1">
          <mxGeometry x="362" y="540" width="120" height="60" as="geometry" />
        </mxCell>
        <mxCell id="N47B7sOQvEutrvXWtpZi-16" style="edgeStyle=orthogonalEdgeStyle;rounded=0;orthogonalLoop=1;jettySize=auto;html=1;" edge="1" parent="1" source="N47B7sOQvEutrvXWtpZi-13" target="N47B7sOQvEutrvXWtpZi-12">
          <mxGeometry relative="1" as="geometry" />
        </mxCell>
        <mxCell id="N47B7sOQvEutrvXWtpZi-13" value="(a+b+c)/3" style="strokeWidth=2;html=1;shape=mxgraph.flowchart.document2;whiteSpace=wrap;size=0.25;" vertex="1" parent="1">
          <mxGeometry x="377" y="430" width="90" height="60" as="geometry" />
        </mxCell>
      </root>
    </mxGraphModel>
  </diagram>
  <diagram id="IShIE8sm1Nz16HbQYt3X" name="Page-10">
    <mxGraphModel dx="1306" dy="825" grid="1" gridSize="10" guides="1" tooltips="1" connect="1" arrows="1" fold="1" page="1" pageScale="1" pageWidth="850" pageHeight="1100" math="0" shadow="0">
      <root>
        <mxCell id="0" />
        <mxCell id="1" parent="0" />
        <mxCell id="9WZlocQL-FLnp4hCWlA9-1" value="" style="edgeStyle=orthogonalEdgeStyle;rounded=0;orthogonalLoop=1;jettySize=auto;html=1;" edge="1" parent="1" source="9WZlocQL-FLnp4hCWlA9-2" target="9WZlocQL-FLnp4hCWlA9-8">
          <mxGeometry relative="1" as="geometry" />
        </mxCell>
        <mxCell id="9WZlocQL-FLnp4hCWlA9-2" value="start" style="rounded=1;whiteSpace=wrap;html=1;" vertex="1" parent="1">
          <mxGeometry x="367" y="80" width="120" height="60" as="geometry" />
        </mxCell>
        <mxCell id="9WZlocQL-FLnp4hCWlA9-3" value="" style="verticalLabelPosition=bottom;verticalAlign=top;html=1;shape=card;whiteSpace=wrap;size=20;arcSize=12;" vertex="1" parent="1">
          <mxGeometry x="372" y="210" width="100" height="50" as="geometry" />
        </mxCell>
        <mxCell id="9WZlocQL-FLnp4hCWlA9-4" value="" style="edgeStyle=orthogonalEdgeStyle;rounded=0;orthogonalLoop=1;jettySize=auto;html=1;" edge="1" parent="1" source="9WZlocQL-FLnp4hCWlA9-5" target="9WZlocQL-FLnp4hCWlA9-13">
          <mxGeometry relative="1" as="geometry" />
        </mxCell>
        <mxCell id="9WZlocQL-FLnp4hCWlA9-5" value="a*b" style="strokeWidth=2;html=1;shape=mxgraph.flowchart.document2;whiteSpace=wrap;size=0.25;" vertex="1" parent="1">
          <mxGeometry x="377" y="320" width="90" height="60" as="geometry" />
        </mxCell>
        <mxCell id="9WZlocQL-FLnp4hCWlA9-6" value="" style="verticalLabelPosition=bottom;verticalAlign=top;html=1;shape=card;whiteSpace=wrap;size=20;arcSize=12;" vertex="1" parent="1">
          <mxGeometry x="372" y="200" width="100" height="60" as="geometry" />
        </mxCell>
        <mxCell id="9WZlocQL-FLnp4hCWlA9-7" value="" style="edgeStyle=orthogonalEdgeStyle;rounded=0;orthogonalLoop=1;jettySize=auto;html=1;" edge="1" parent="1" source="9WZlocQL-FLnp4hCWlA9-8" target="9WZlocQL-FLnp4hCWlA9-5">
          <mxGeometry relative="1" as="geometry" />
        </mxCell>
        <mxCell id="9WZlocQL-FLnp4hCWlA9-8" value="" style="verticalLabelPosition=bottom;verticalAlign=top;html=1;shape=card;whiteSpace=wrap;size=20;arcSize=12;" vertex="1" parent="1">
          <mxGeometry x="372" y="200" width="100" height="60" as="geometry" />
        </mxCell>
        <mxCell id="9WZlocQL-FLnp4hCWlA9-9" value="b" style="rounded=0;whiteSpace=wrap;html=1;" vertex="1" parent="1">
          <mxGeometry x="387" y="445" width="70" height="30" as="geometry" />
        </mxCell>
        <mxCell id="9WZlocQL-FLnp4hCWlA9-10" value="a,b" style="rounded=0;whiteSpace=wrap;html=1;" vertex="1" parent="1">
          <mxGeometry x="387" y="215" width="70" height="30" as="geometry" />
        </mxCell>
        <mxCell id="9WZlocQL-FLnp4hCWlA9-11" value="End" style="rounded=1;whiteSpace=wrap;html=1;" vertex="1" parent="1">
          <mxGeometry x="362" y="540" width="120" height="60" as="geometry" />
        </mxCell>
        <mxCell id="9WZlocQL-FLnp4hCWlA9-12" style="edgeStyle=orthogonalEdgeStyle;rounded=0;orthogonalLoop=1;jettySize=auto;html=1;" edge="1" parent="1" source="9WZlocQL-FLnp4hCWlA9-13" target="9WZlocQL-FLnp4hCWlA9-11">
          <mxGeometry relative="1" as="geometry" />
        </mxCell>
        <mxCell id="9WZlocQL-FLnp4hCWlA9-13" value="(a+b)*2" style="strokeWidth=2;html=1;shape=mxgraph.flowchart.document2;whiteSpace=wrap;size=0.25;" vertex="1" parent="1">
          <mxGeometry x="377" y="430" width="90" height="60" as="geometry" />
        </mxCell>
      </root>
    </mxGraphModel>
  </diagram>
  <diagram id="JHdb6ri1R1WroyEmkXz-" name="Page-11">
    <mxGraphModel dx="1306" dy="825" grid="1" gridSize="10" guides="1" tooltips="1" connect="1" arrows="1" fold="1" page="1" pageScale="1" pageWidth="850" pageHeight="1100" math="0" shadow="0">
      <root>
        <mxCell id="0" />
        <mxCell id="1" parent="0" />
        <mxCell id="Zm1BTjPn4TYF6QB4sssj-1" value="" style="edgeStyle=orthogonalEdgeStyle;rounded=0;orthogonalLoop=1;jettySize=auto;html=1;" edge="1" parent="1" source="Zm1BTjPn4TYF6QB4sssj-2" target="Zm1BTjPn4TYF6QB4sssj-8">
          <mxGeometry relative="1" as="geometry" />
        </mxCell>
        <mxCell id="Zm1BTjPn4TYF6QB4sssj-2" value="start" style="rounded=1;whiteSpace=wrap;html=1;" vertex="1" parent="1">
          <mxGeometry x="367" y="80" width="120" height="60" as="geometry" />
        </mxCell>
        <mxCell id="Zm1BTjPn4TYF6QB4sssj-3" value="" style="verticalLabelPosition=bottom;verticalAlign=top;html=1;shape=card;whiteSpace=wrap;size=20;arcSize=12;" vertex="1" parent="1">
          <mxGeometry x="372" y="210" width="100" height="50" as="geometry" />
        </mxCell>
        <mxCell id="Zm1BTjPn4TYF6QB4sssj-4" value="" style="edgeStyle=orthogonalEdgeStyle;rounded=0;orthogonalLoop=1;jettySize=auto;html=1;exitX=0.5;exitY=1;exitDx=0;exitDy=0;exitPerimeter=0;" edge="1" parent="1" source="Zm1BTjPn4TYF6QB4sssj-8" target="Zm1BTjPn4TYF6QB4sssj-13">
          <mxGeometry relative="1" as="geometry">
            <mxPoint x="422" y="380" as="sourcePoint" />
          </mxGeometry>
        </mxCell>
        <mxCell id="Zm1BTjPn4TYF6QB4sssj-6" value="" style="verticalLabelPosition=bottom;verticalAlign=top;html=1;shape=card;whiteSpace=wrap;size=20;arcSize=12;" vertex="1" parent="1">
          <mxGeometry x="372" y="200" width="100" height="60" as="geometry" />
        </mxCell>
        <mxCell id="Zm1BTjPn4TYF6QB4sssj-8" value="" style="verticalLabelPosition=bottom;verticalAlign=top;html=1;shape=card;whiteSpace=wrap;size=20;arcSize=12;" vertex="1" parent="1">
          <mxGeometry x="372" y="200" width="100" height="60" as="geometry" />
        </mxCell>
        <mxCell id="Zm1BTjPn4TYF6QB4sssj-9" value="b" style="rounded=0;whiteSpace=wrap;html=1;" vertex="1" parent="1">
          <mxGeometry x="387" y="445" width="70" height="30" as="geometry" />
        </mxCell>
        <mxCell id="Zm1BTjPn4TYF6QB4sssj-10" value="a,b" style="rounded=0;whiteSpace=wrap;html=1;" vertex="1" parent="1">
          <mxGeometry x="387" y="215" width="70" height="30" as="geometry" />
        </mxCell>
        <mxCell id="Zm1BTjPn4TYF6QB4sssj-11" value="End" style="rounded=1;whiteSpace=wrap;html=1;" vertex="1" parent="1">
          <mxGeometry x="362" y="540" width="120" height="60" as="geometry" />
        </mxCell>
        <mxCell id="Zm1BTjPn4TYF6QB4sssj-12" style="edgeStyle=orthogonalEdgeStyle;rounded=0;orthogonalLoop=1;jettySize=auto;html=1;" edge="1" parent="1" source="Zm1BTjPn4TYF6QB4sssj-13" target="Zm1BTjPn4TYF6QB4sssj-11">
          <mxGeometry relative="1" as="geometry" />
        </mxCell>
        <mxCell id="Zm1BTjPn4TYF6QB4sssj-13" value="(a*0.5)*(a*0.5)*3.14*b" style="strokeWidth=2;html=1;shape=mxgraph.flowchart.document2;whiteSpace=wrap;size=0.25;" vertex="1" parent="1">
          <mxGeometry x="377" y="430" width="90" height="60" as="geometry" />
        </mxCell>
      </root>
    </mxGraphModel>
  </diagram>
</mxfile>
